<?xml version="1.0" standalone="no"?><!DOCTYPE svg PUBLIC "-//W3C//DTD SVG 1.1//EN" "http://www.w3.org/Graphics/SVG/1.1/DTD/svg11.dtd"><svg t="1528292256439" class="icon" style="" viewBox="0 0 1024 1024" version="1.1" xmlns="http://www.w3.org/2000/svg" p-id="1608" xmlns:xlink="http://www.w3.org/1999/xlink" width="200" height="200"><defs><style type="text/css"></style></defs><path d="M703.552 549.28 703.552 159.424c0-83.392-68.32-151.232-151.712-151.232-83.36 0-151.68 67.84-151.68 151.232l0 389.76c-68.192 48.544-110.88 126.944-110.88 209.216 0 142.336 114.944 258.144 256.16 258.144 144.032 0 261.6-115.808 261.6-258.144C807.008 672.768 768.32 596.064 703.552 549.28zM545.504 944.416c-101.408 0-183.936-83.456-183.936-186.016 0-38.432 13.024-75.744 35.968-106.816l136.48 0c9.952 0 18.048-8.768 18.048-18.752 0-9.952-8.064-18.752-18.048-18.752l-99.968 0c6.592-5.152 13.12-9.92 20.448-14.272l17.28-10.464 0-50.272 62.24 0c9.952 0 18.048-7.072 18.048-17.056 0-9.952-8.064-17.056-18.048-17.056l-62.24 0 0-34.08 62.24 0c9.952 0 18.048-7.072 18.048-17.056 0-9.952-8.064-17.056-18.048-17.056l-62.24 0 0-40.896 62.24 0c9.952 0 18.048-7.072 18.048-17.056s-8.064-17.056-18.048-17.056l-62.24 0 0-34.08 62.24 0c9.952 0 18.048-7.072 18.048-17.056 0-9.952-8.064-17.056-18.048-17.056l-62.24 0L471.776 252.704l62.24 0c9.952 0 18.048-7.072 18.048-17.056s-8.064-17.056-18.048-17.056l-62.24 0 0-59.2c0-43.616 36.512-79.104 80.096-79.104 43.616 0 80.128 35.488 80.128 79.104l0 429.92 17.088 10.464c54.72 32.416 85.824 90.208 85.824 158.592C734.88 860.96 649.76 944.416 545.504 944.416z" p-id="1609"></path><path d="M430.624 733.376c-3.904 13.632-6.56 25.152-6.56 38.496 0 68.48 55.52 124.224 123.968 124.224 68.48 0 123.968-55.904 123.968-124.352 0-13.344-2.656-24.704-6.56-38.368L430.624 733.376z" p-id="1610"></path></svg>